<svg width="190" height="32" fill="none" xmlns="http://www.w3.org/2000/svg"><path fill-rule="evenodd" clip-rule="evenodd" d="M57.76 27.35c-.553.056-1.114.114-1.688.184l-4.608-13.33v13.898c-1.44.142-2.736.33-4.128.567V3.19h3.84l5.232 14.465V3.19h4.08v23.826c-.901.148-1.803.24-2.728.335zM71.292 12.5c.954-.023 1.885-.046 2.588-.046v3.971c-1.776 0-3.888 0-5.424.095v5.91c.748-.046 1.5-.096 2.257-.146 1.622-.107 3.258-.216 4.895-.28v3.829l-11.184.85V3.19h11.184V7.16h-7.152v5.39c.81 0 1.835-.026 2.835-.05zm15.116-5.293h4.176s0-4.018.048-4.018H78.2v4.018h4.176V25.55c1.296-.047 2.688-.047 4.032-.047V7.207zm10.752 5.058h5.52v3.971h-5.52v9.03h-3.984V3.188h11.28V7.16H97.16v5.105zm18.058 9.692c-1.388-.08-2.787-.161-4.186-.19V3.19H107v22.313c3.696.094 7.296.283 10.896.52v-3.924c-.886-.037-1.78-.089-2.678-.14zm7.448 4.436h.001c.864.051 1.743.103 2.621.196V3.19h-3.984v23.116c.449.033.904.06 1.362.088zm15.15-11.102 5.136-12.102h-4.464l-2.832 6.666-2.64-6.666h-4.32l4.704 11.96-5.184 11.63c.576.075 1.152.135 1.728.196.864.09 1.728.181 2.592.323l2.976-6.76 2.88 7.375c.538.082 1.07.171 1.6.26.984.163 1.962.326 2.96.449l-5.136-13.331z" fill="#fff"/></svg>