<svg width="190" height="32" fill="none" xmlns="http://www.w3.org/2000/svg"><path fill-rule="evenodd" clip-rule="evenodd" d="M74.415 22.238a6.21 6.21 0 0 1 .382 3.19c-.334 2.191-1.767 4.096-3.869 4.953-.764.333-1.576.476-2.435.476-.24 0-.526 0-.765-.047-1.003-.096-2.006-.43-3.009-1-1.194-.667-2.388-1.667-3.725-3.096-1.337 1.429-2.484 2.429-3.725 3.096-1.003.57-2.006.857-3.01 1-.119 0-.25.011-.381.023a4.386 4.386 0 0 1-.383.024c-.86 0-1.671-.143-2.435-.476-2.054-.857-3.582-2.714-3.917-4.953-.143-1.095 0-2.142.382-3.19.144-.428.287-.762.43-1.095a37.57 37.57 0 0 0 .669-1.524l.048-.048c2.101-4.476 4.298-9 6.59-13.476l.096-.19c.239-.429.478-.905.717-1.381l.193-.307c.273-.435.558-.89.905-1.312 1.003-1.143 2.34-1.81 3.821-1.81 1.433 0 2.818.667 3.773 1.857.478.524.812 1.096 1.099 1.62.239.476.477.952.716 1.38l.096.19a291.5 291.5 0 0 1 6.59 13.477h.048c.191.476.43 1 .669 1.524.143.333.287.714.43 1.095zM97.484 8.571c0 1.096-.86 1.953-1.959 1.953a1.934 1.934 0 0 1-1.958-1.953c0-1.095.86-1.952 1.958-1.952 1.147.048 1.959.905 1.959 1.952zm-7.977 3.905v.476s-.907-1.19-2.913-1.19c-3.248 0-5.78 2.476-5.78 5.905 0 3.38 2.532 5.904 5.78 5.904 2.006 0 2.913-1.238 2.913-1.238v.524c0 .238.191.429.43.429h2.436V12.048h-2.436c-.286 0-.43.19-.43.428zm-2.435 8.381c1.098 0 2.006-.571 2.435-1.238v-4c-.43-.619-1.385-1.238-2.435-1.238-1.91 0-3.391 1.19-3.391 3.238s1.48 3.238 3.39 3.238zm9.886-8.81v11.191h-2.865v-11.19h2.865zm37.063.905s.955-1.19 2.913-1.19c3.248 0 5.779 2.476 5.779 5.857 0 3.381-2.531 5.905-5.779 5.905-2.006 0-2.913-1.238-2.913-1.238v.523a.427.427 0 0 1-.43.43h-2.436V6.666h2.866v6.285zm2.436 7.857a2.994 2.994 0 0 1-2.436-1.238v-4c.43-.619 1.385-1.238 2.436-1.238 1.91 0 3.391 1.19 3.391 3.238s-1.481 3.238-3.391 3.238zm-6.782 2.477v-6.667c0-1.905-.382-2.952-1.338-3.762-.859-.714-1.91-1.095-3.152-1.095-1.098 0-2.197.333-3.057 1.19v-.476a.427.427 0 0 0-.429-.428h-2.293v11.238h2.866v-7.81c.573-.667 1.48-1.095 2.34-1.095 1.576 0 2.197.714 2.197 2.571v6.334h2.866zm-17.242-11.524c-1.958 0-2.914 1.19-2.914 1.19V6.667h-2.865v16.571h2.436c.238 0 .429-.19.429-.428v-.524s.908 1.238 2.914 1.238c3.248 0 5.779-2.524 5.779-5.905.048-3.38-2.484-5.857-5.779-5.857zm-2.914 7.81a2.996 2.996 0 0 0 2.436 1.238c1.911 0 3.391-1.191 3.391-3.239 0-2.047-1.48-3.238-3.391-3.238-1.051 0-2.006.62-2.436 1.238v4zm-5.301-7.81c.86 0 1.337.143 1.337.143v2.666s-2.388-.81-3.868.905v7.81h-2.866V12.048h2.436c.239 0 .43.19.43.428v.476c.477-.619 1.623-1.19 2.531-1.19zm-43.272 12c-1.624-2.048-2.674-3.953-3.009-5.524-.143-.667-.19-1.286-.095-1.81.047-.476.239-.904.477-1.238a3.192 3.192 0 0 1 2.627-1.333c1.099 0 2.102.476 2.627 1.334.239.38.43.761.478 1.237.095.524.047 1.143-.096 1.81-.334 1.572-1.385 3.476-3.009 5.524zm9.218 4.905a4.288 4.288 0 0 0 2.723-3.477c.095-.81 0-1.523-.144-2.285a6.567 6.567 0 0 0-.19-.48c-.06-.143-.126-.298-.192-.473-.12-.238-.227-.488-.334-.738-.108-.25-.215-.5-.335-.738v-.047A344.693 344.693 0 0 0 65.15 7.047l-.095-.19c-.24-.477-.478-.953-.717-1.382-.239-.476-.525-.952-.86-1.333a3.137 3.137 0 0 0-2.387-1.095c-.908 0-1.768.38-2.389 1.095a7.93 7.93 0 0 0-.86 1.333c-.238.476-.477.953-.716 1.381l-.095.19c-2.34 4.43-4.538 8.953-6.591 13.382l-.048.047c-.239.476-.478 1-.669 1.476-.143.334-.286.667-.382.953a4.508 4.508 0 0 0-.286 2.333c.19 1.524 1.241 2.857 2.722 3.476.669.238 1.433.381 2.245.286a6.205 6.205 0 0 0 2.292-.762c1.051-.619 2.15-1.524 3.392-2.905-1.959-2.428-3.2-4.666-3.63-6.619-.24-.904-.287-1.762-.144-2.523.144-.762.382-1.43.812-2.048.908-1.286 2.484-2.095 4.203-2.095 1.72 0 3.296.761 4.203 2.095.43.619.669 1.285.812 2.047.096.762.048 1.62-.143 2.524-.478 1.953-1.672 4.143-3.63 6.572 1.242 1.38 2.293 2.285 3.391 2.904.812.429 1.529.667 2.293.762.812.096 1.576 0 2.292-.285z" fill="#fff"/></svg>