<svg width="190" height="32" fill="none" xmlns="http://www.w3.org/2000/svg"><path d="M62.045 6.733v11.28c0 3.761-1.624 5.324-5.445 5.324-3.82 0-5.445-1.563-5.445-5.323V6.244h-3.677c-.335 0-.478.147-.478.489V18.16c0 6.3 3.916 8.498 9.6 8.498 5.684 0 9.6-2.198 9.6-8.498V6.244h-3.678c-.286 0-.477.147-.477.489zM115.394 9.516c.287 0 .43-.097.525-.342l1.051-2.686c.048-.146 0-.244-.143-.244h-14.806c-1.385 0-1.911.44-1.911 1.416v17.484c0 .83.383 1.172 1.481 1.172h13.803c.287 0 .43-.097.525-.342l1.051-2.686c.048-.146 0-.244-.143-.244H104.17V19.48c0-1.22.669-1.807 2.436-1.807h5.493c.286 0 .429-.098.525-.342l1.003-2.588c.048-.147 0-.244-.143-.244h-9.362V9.516h11.272z" fill="#fff"/><path fill-rule="evenodd" clip-rule="evenodd" d="M91.609 11.323c0 1.905-.669 3.516-2.293 4.396 2.197.634 3.2 2.637 3.153 5.03 0 4.004-2.77 5.567-6.64 5.567H75.562c-1.098 0-1.48-.342-1.48-1.172V7.66c0-.976.525-1.416 1.91-1.416h8.406c3.678 0 7.212.635 7.212 5.08zm-13.42-1.856h6.495c2.149 0 2.77.83 2.77 2.589 0 1.71-.621 2.588-2.77 2.588h-6.496V9.467zm7.259 13.626h-7.26V19.43c0-1.22.669-1.807 2.436-1.807h4.824c2.292 0 2.961.928 2.961 2.735 0 1.856-.669 2.735-2.961 2.735zM138.272 18.258l4.394 7.716c.095.098.095.342-.239.342h-3.726c-.275 0-.374-.135-.508-.32-.006-.006-.011-.014-.017-.022l-3.964-7.325h-3.63c-1.767 0-2.436.586-2.436 1.807v5.86h-3.582c-.334 0-.477-.146-.477-.488V7.66c0-.976.525-1.416 1.91-1.416h8.406c4.872 0 7.833 1.319 7.833 6.203 0 3.76-1.767 5.225-3.964 5.811zm-10.126-2.686h6.83c2.579 0 3.105-1.025 3.105-3.077 0-2.002-.574-3.028-3.105-3.028h-6.83v6.105z" fill="#fff"/></svg>